<svg xmlns="http://www.w3.org/2000/svg" width="256" height="256" viewBox="0 0 100 100"><path fill="#000000" d="M69.74 64.29L80.10 64.29Q78.65 76.69 70.95 83.44Q63.24 90.18 50.46 90.18L50.46 90.18Q36.60 90.18 28.25 80.24Q19.90 70.30 19.90 53.65L19.90 53.65L19.90 46.13Q19.90 35.23 23.79 26.96Q27.68 18.69 34.83 14.26Q41.97 9.82 51.37 9.82L51.37 9.82Q63.83 9.82 71.35 16.78Q78.87 23.74 80.10 36.04L80.10 36.04L69.74 36.04Q68.40 26.69 63.91 22.50Q59.43 18.31 51.37 18.31L51.37 18.31Q41.49 18.31 35.87 25.62Q30.26 32.92 30.26 46.40L30.26 46.40L30.26 53.97Q30.26 66.70 35.58 74.22Q40.90 81.74 50.46 81.74L50.46 81.74Q59.05 81.74 63.64 77.85Q68.23 73.96 69.74 64.29L69.74 64.29Z"></path></svg>